<svg id="Layer_1" data-name="Layer 1" xmlns="http://www.w3.org/2000/svg" viewBox="0 0 2971.2 2320.92"><defs><style>.cls-1{fill:#309aba;}.cls-2{fill:#3b91ce;}.cls-3{fill:#f69d98;}.cls-4{fill:#f48e8c;}.cls-5{fill:#facbca;}.cls-6{fill:#3d76bb;}.cls-7{fill:#26374c;}.cls-8{fill:#455972;}.cls-9{fill:#eebbba;}.cls-10{fill:#4461ad;}.cls-11{fill:#7b97ce;}.cls-12{fill:#87a0d2;}.cls-13{fill:#8ea5d5;}.cls-14{fill:#ef9492;}.cls-15{fill:#3e78bd;}.cls-16{fill:#e6e7e8;}.cls-17{fill:#d1d3d4;}.cls-18{fill:#bcbec0;}.cls-19{fill:#233449;}.cls-20{fill:#e9c7ab;}.cls-21{fill:#e6c19e;}.cls-22{fill:#ddb28e;}.cls-23{fill:#231f20;}.cls-24{fill:#fff;}</style></defs><path class="cls-1" d="M2674.13,1541a10.49,10.49,0,0,0-12.89-10.63,10.17,10.17,0,0,0-1.39.44l-34.78,13.55a10.46,10.46,0,0,0-6.66,9.2c-17.43,324.11-176.6,619.3-425,813.09l1.3.93c-182,142-407.47,226.8-646.87,234a1099.16,1099.16,0,0,1-152.91-6.05c-350.64-38.41-665.76-243.7-841.59-553.23L641,1997.18a15.73,15.73,0,0,0,1.86-26.85L442.1,1829.12a15.73,15.73,0,0,0-24.77,12.72l-2.21,245.47A15.73,15.73,0,0,0,438,2101.44l66.24-34a1165,1165,0,0,0,396.56,414.1c194.33,121.42,418.63,181.95,648.63,175s450.26-80.79,637-213.65a1164.62,1164.62,0,0,0,401.52-505.09h0l0,0q1.85-4.5,3.67-9a10.25,10.25,0,0,0,.68-2.92l10.3-28.28q1.72-4.68,3.41-9.36l1.57-4.31v0q3-8.47,5.93-17A1159.68,1159.68,0,0,0,2674.13,1541Z" transform="translate(-14.49 -336.17)"/><path class="cls-2" d="M2573.56,1047.2l-21.5-244.53a15.72,15.72,0,0,0-24.16-11.85l-62.65,40.26a1165.26,1165.26,0,0,0-434.68-373.89c-205.15-102.09-434.24-140.68-662.5-111.6S927.72,469.47,754.71,619.73A1164.44,1164.44,0,0,0,401,1170.61a10.46,10.46,0,0,0,.68,7.62,1159.21,1159.21,0,0,0-46.52,319.23,10.49,10.49,0,0,0,13.25,10.16,10.85,10.85,0,0,0,1.38-.49l34.28-14.77a10.49,10.49,0,0,0,6.33-9.43c7.2-392.18,222.78-749.48,558.7-940.75,0,0,90.62-57.6,198.43-94.79a1100.56,1100.56,0,0,1,360.25-55.93c352.71,4.39,686.18,178.3,891.07,469.41l-83,53.32a15.72,15.72,0,0,0,.74,26.9l213.49,121.16a15.72,15.72,0,0,0,23.42-15Z" transform="translate(-14.49 -336.17)"/><path class="cls-3" d="M2604.44,1426.47c6.56-40.36,9.71-81.68,8.17-122.93a458.9,458.9,0,0,0-6.37-62.22c-1.31-7.43-4.83-17.78-4.09-26.3-40.1-11.08-95.45-43-95.45-43-24.87-16.19-69.72-34.37-88.78-41.79-22.57-16.29-39.7-39.78-61.72-57.17-8.25-6.52-17.23-12.21-24.5-19.82-6.84-7.16-11.94-15.79-18.19-23.47-5.75-7.08-12.46-13.31-18.89-19.77-2.33-2.34-4.61-4.71-6.87-7.1-36-41.3-66.32-103.25-71.54-114.18l-.51-1.06-.29-.63h0a25.7,25.7,0,0,0-7.17-9.28c-6.26-4.74-14.73-4.38-21.81-.83l0,0s-37.74,13-7.22,68.54c0,0,32.32,66.5,54.28,81-1.76-1.13-3.51-2.28-5.24-3.47-27.45-18.84-48.51-45.41-69.59-71.2-5.89-7.21-11.91-14.45-18.84-20.64l-.23-.2-1.36-1.16c-13.88-11.87-23.88-28.47-44.21-18.2-22.22,11.22-20.52,40.41-10.86,59.3a142.39,142.39,0,0,0,18.2,26.85c2.22,2.63,20.72,21.28,29.81,29.16h0a30.12,30.12,0,0,0,4.27,3.3c12.25,9.49,47.89,37.17,66,52.18q2.18,1.1,4.38,2.14c-15.94-7.56-30.89-17.16-46.79-24.84-16.4-7.91-33.73-13.71-50.48-20.85-35.62-15.17-68.43-36.28-103.73-52.2-9.34-4.22-20.38-8-29.47-3.29-5.16,2.7-8.7,7.78-11,13.13-7.29,17-3.41,37.3,6.71,52.74s25.72,26.55,42.17,34.91,34,14.31,50.89,21.77c5.67,2.51,11.28,5.2,16.86,8-11.27.72-22.56,1.52-33.73.85-23.28-1.4-46.49-9.25-69.51-5.43-20,3.32-37.52,15.13-54.28,26.64l-68.89,47.32c-5.43,3.73-11,7.62-14.56,13.19-7.58,11.92-3.13,28.77,7.28,38.3s25.21,12.86,39.32,12.89c27.32,0,54.06-11.07,75.12-28.46,9.58-7.91,18.51-17.33,30.28-21.29,9.06-3,18.88-2.51,28.42-2l51.13,3c10.39.62,21.17,1.34,30.33,6.28,11.35,6.11,18.46,17.66,26.31,27.88a167.37,167.37,0,0,0,51.8,44.55c5.93,3.27,12.09,6.21,18,9.54,0,0,57.78,59.91,25.32,93.52-31.56,23.92-70.76,71.17-70.76,71.17-24.87,18.85-41.64,19.08-41.64,19.08-7.88,2.65-16.45.77-24.67-.48a157.69,157.69,0,0,0-24.84-1.78h-.06q-4,0-7.9.26c-10.35.33-20.69.64-31,1-6.64.24-13.29.52-19.92.89-6.16.34-12.56,1.46-18.71,1.06-4.47-.29-8.89-1.13-13.32-1.76-22.52-3.24-47.32.14-64.31,15.28s-22.35,44.05-7.15,61c10.5,11.71,27.2,15.08,42.69,17.8,25.67,4.52,53.14,8.79,77.43.67,4.48-.65,9-1.34,13.42-2a344,344,0,0,1,104.67,1.88c25.06,4.32,49.91,11.46,75.33,11,30.76-.52,60.13-12.06,88.74-23.35,96.51-38.1,194.28-75.55,296.78-91.68q3,.12,5.95.17C2601.16,1450.51,2602.64,1437.56,2604.44,1426.47Z" transform="translate(-14.49 -336.17)"/><path class="cls-4" d="M1842.38,1229a33.16,33.16,0,0,0,4.89,5.66c10.41,9.54,25.21,12.86,39.32,12.89,23.8,0,47.15-8.4,66.7-22.07Z" transform="translate(-14.49 -336.17)"/><path class="cls-4" d="M2352.51,1242s-105.88-41.66-162.2-85.2c-31.77-24.56-71.19-34.31-109.76-43-11.13.71-22.29,1.49-33.32.82-23.28-1.4-46.49-9.25-69.51-5.43-20,3.32-37.52,15.13-54.28,26.64l-68.89,47.32c-5.43,3.73-11,7.62-14.56,13.19-4.13,6.5-4.67,14.45-2.63,21.9,7.66-.78,24.36-5.92,58.19-28.51,0,0,62.67-45.18,63-45.45,19.21-13.84,44.53-9.08,66.53-8.25,36.18,1.36,75.29-.35,110.27,10.44,21.72,6.7,40.95,27.46,59.56,40.29,24.86,17.15,50.94,33.29,78.95,44.78,0,0,73.76,22,94.53,26.54C2368.42,1258.08,2384.76,1255.7,2352.51,1242Z" transform="translate(-14.49 -336.17)"/><path class="cls-5" d="M1842.33,1228.69a10.52,10.52,0,0,0,5.43,3.7c2.28.46,4.6-.39,6.76-1.23,21.63-8.4,44.06-18.68,57-37.91,1.28-1.9,2.5-4.13,2-6.36a9.11,9.11,0,0,0-1.46-2.9l-7.38-11.14c-4-6.09-9.28-12.86-16.59-12.91-4.11,0-7.87,2.17-11.33,4.39C1855.5,1178,1817.32,1200.39,1842.33,1228.69Z" transform="translate(-14.49 -336.17)"/><path class="cls-4" d="M2367,1204.31s-86.35-69-109.66-92.06c0,0-16.63-12.78-55.88-30l-.09-.06c-14.29-7.16-27.92-15.68-42.32-22.64-16.4-7.91-33.73-13.71-50.48-20.85-35.62-15.17-68.43-36.28-103.73-52.2-9.34-4.22-20.38-8-29.47-3.29-4.51,2.36-7.78,6.53-10.07,11.11,7.76.9,21,4.67,43.31,15.63l56.52,28.51s43,20.39,67.34,28.31c0,0,61.08,29.4,89.61,46.61,0,0,121.8,89.21,155.35,110.1C2377.4,1223.53,2409.31,1237.48,2367,1204.31Z" transform="translate(-14.49 -336.17)"/><path class="cls-4" d="M2398.85,1175.73c44.71,20.27,16.06-.53,16.06-.53-50.5-26.16-110.73-92.48-110.73-92.48-24.87-22.92-70.73-56.34-70.73-56.34-1.76-1.13-3.51-2.28-5.24-3.47-27.45-18.84-48.51-45.41-69.59-71.2-5.89-7.21-11.91-14.45-18.84-20.64l-.23-.2-1.36-1.16c-13.25-11.33-23-27-41.5-19.43,21,15.42,49.62,49.5,49.62,49.5,26.27,33,97.58,96.31,97.58,96.31l64.58,50.06C2333.67,1138.66,2398.85,1175.73,2398.85,1175.73Z" transform="translate(-14.49 -336.17)"/><path class="cls-4" d="M2612.61,1303.54a458.9,458.9,0,0,0-6.37-62.22c-1.31-7.43-4.83-17.78-4.09-26.3-6-1.65-12.29-3.77-18.71-6.17h0l-1-.36-1.21-.46-1.19-.46-1.86-.73-1.22-.48-1.14-.46-1.78-.72-1.27-.52-1.22-.51-1.26-.52-1.82-.77-1.07-.46-1.24-.53-1.83-.8-1.25-.55-1-.46-1.91-.86-1.09-.49C2531,1186,2506.7,1172,2506.7,1172c-24.87-16.19-69.72-34.37-88.78-41.79,0,0,.43,11.36,25.33,22.3,0,0,85.92,42.41,110,72.25,0,0,13.73,15.94,15.35,30.15a626.36,626.36,0,0,1,1,146c-7.34,2.65-14.56,5.7-21.74,8.75l-72.55,30.79c-27,11.48-54.12,23-80.15,36.61-51.46,27-101.55,63.08-159.57,65.84-42.28,2-83.4-14.25-125.68-16.21-28.56-1.31-58.19,3.78-85.26-4.85l0,0-8.06-2-39.15-10.2c-34.94-13.08-20.36-15.61-11.75-16.08l41.68-.87s24.34.48,26.5-23.25c-3.84.12-7.69.25-11.53.39-6.64.24-13.29.52-19.92.89-6.16.34-12.56,1.46-18.71,1.06-4.47-.29-8.89-1.13-13.32-1.76-17.76-2.56-36.93-1-52.57,7.2h0a62,62,0,0,0-5.91,3.54l-.32.22c-.88.61-1.75,1.24-2.59,1.9l-.39.31c-.86.68-1.7,1.37-2.53,2.11s-1.47,1.36-2.17,2.08l-.15.16c-.67.69-1.32,1.4-1.94,2.14-.08.08-.15.17-.23.26-.6.71-1.17,1.45-1.73,2.2l-.26.35c-.54.74-1.05,1.49-1.55,2.25,0,.08-.1.15-.15.23h0q-1.21,1.9-2.27,3.93h0c-7.93,15.3-8.08,34.7,3.3,47.38,10.5,11.71,27.2,15.08,42.69,17.8,25.67,4.52,53.14,8.79,77.43.67,4.48-.65,9-1.34,13.42-2a344,344,0,0,1,104.67,1.88c25.06,4.32,49.91,11.46,75.33,11,30.76-.52,60.13-12.06,88.74-23.35,84.05-33.18,169.06-65.86,257.31-84.4q9.61-2,19.3-3.82l.42-.08q4.35-.8,8.71-1.55l1.2-.21c3.28-.56,6.55-1.1,9.84-1.62q3,.12,5.95.17c-2.82-10.41-1.34-23.36.46-34.45.44-2.71.87-5.42,1.27-8.14.07-.41.12-.82.18-1.24.36-2.39.7-4.78,1-7.18,0-.22.05-.44.08-.66.36-2.62.71-5.26,1-7.89v-.08A607.19,607.19,0,0,0,2612.61,1303.54Z" transform="translate(-14.49 -336.17)"/><path class="cls-5" d="M1894.71,1544.51c7.89,8.89,19.33,13.79,30.78,17a144,144,0,0,0,25.3,4.67c2.7.25,5.53.4,8-.71,2.76-1.23,4.65-3.83,6.16-6.45a51.65,51.65,0,0,0,5.81-35.73,16.59,16.59,0,0,0-3.09-7.48c-2.84-3.41-7.54-4.49-11.9-5.37l-12.76-2.6c-10.26-2.08-20.56-4.17-31-4.8a40,40,0,0,0-13.46,1C1880.54,1509.16,1885,1533.53,1894.71,1544.51Z" transform="translate(-14.49 -336.17)"/><path class="cls-6" d="M2948,1561.69a146.32,146.32,0,0,1,37.69-22.58l-1.84-393.9c-17.56-3.53-35.52-5-52.77-.55-26,6.66-49.62,19.6-76.46,23.49a262.58,262.58,0,0,1-52.43-4.25c-12.09-2.22-24.18-5.29-36.37-5-21.46.52-27.68,14.56-43.65,25.39-5.81,3.94-12.69,5.42-19.42,6.72a621.43,621.43,0,0,1-64,8.44c-9.77.84-21.43-2-30.24,3.84-11.73,7.77-4.28,26.45-2.25,38a458.9,458.9,0,0,1,6.37,62.22c1.54,41.25-1.61,82.57-8.17,122.93-2.73,16.84-4.73,38,8,48,9.1,7.17,21.25,4.51,32.18,6.13,25.63,3.78,42.07,25.38,60.42,43,10.46,10,21.56,18.77,35.34,22.15,21,5.14,40.95-6.28,61.95-3a85.42,85.42,0,0,1,42.31,19.58c21.46,18.8,31.81,44.82,63.23,30.46C2923,1585.79,2934.87,1572.53,2948,1561.69Z" transform="translate(-14.49 -336.17)"/><path class="cls-7" d="M2826,1525.87c9.47,5.3,16.91,14.22,25,21.88s17.9,14.47,28.36,14c8-.35,15.26-4.92,21.31-10.59s11.16-12.5,17-18.46a89.84,89.84,0,0,1,22.68-17c6.07-3.17,12.7-5.77,17.13-11.36s5.51-15.51.16-20.29c-3.9-3.49-9.44-2.91-14.2-1.63-15.15,4.08-28.64,13.27-42.88,20.21s-30.45,11.67-45.49,6.33c-8.42-3-15.86-8.94-24.23-12.08-17.89-6.7-37.55.43-52.75,12.24-2.82,2.19-5.67,4.73-6.85,8.36s.08,8.57,3.39,9.84c1.7.65,3.54.23,5.27-.19C2795.78,1523.29,2810,1516.67,2826,1525.87Z" transform="translate(-14.49 -336.17)"/><path class="cls-7" d="M2984.34,1247.27l-.33-70.36c-13.38-4.18-26.73-9.12-40.49-9.31-28.23-.4-53.28,19.08-81.13,23.44-14.79,2.32-29.92.29-44.85-1.74-19-2.57-41.22-7.45-59.05,1.82a4.39,4.39,0,0,0-1.4,1c-1.11,1.41-.34,3.85,1.09,4.91s3.22,1.17,4.92,1.26a118.3,118.3,0,0,1,46.36,12.6c9.11,4.59,17.88,10.42,27.58,12.89,26,6.62,54.31-11.81,78.69.7,13.56,7,22.27,21.86,31.9,34.7,1.77,2.37,3.76,4.8,6.39,5.64s5.23,0,7.65-1.11C2970.11,1260,2977.2,1253.6,2984.34,1247.27Z" transform="translate(-14.49 -336.17)"/><path class="cls-8" d="M2725.18,1223.69a5.39,5.39,0,0,1-2,.81c-30.47,6.08-61.57,10.84-92.43,14.13-3.35.36-6.39-2.41-6.8-6.19s2-7.12,5.34-7.48c30.53-3.26,61.3-8,91.46-14,3.31-.66,6.53,1.83,7.21,5.56A7,7,0,0,1,2725.18,1223.69Z" transform="translate(-14.49 -336.17)"/><path class="cls-8" d="M2723.89,1479.38a5.38,5.38,0,0,1-2.17.84c-16.87,2.7-33.52-4.71-48.21-11.25l-1.41-.63c-14.19-6.31-29.19-12.12-42.8-8-3.24,1-6.64-1.19-7.6-4.85s.9-7.42,4.13-8.41c17.22-5.22,35.11,1.66,50.52,8.51l1.42.63c13.9,6.19,28.27,12.59,41.93,10.41,3.33-.53,6.48,2.08,7,5.83A7,7,0,0,1,2723.89,1479.38Z" transform="translate(-14.49 -336.17)"/><path class="cls-8" d="M2741,1420.43a5.54,5.54,0,0,1-2.88.91c-36.1.9-73.42,1.83-109.84-8.13-3.3-.9-5.39-4.62-4.67-8.3s4-5.94,7.28-5c34.84,9.52,71.34,8.61,106.65,7.73,3.37-.08,6.23,2.92,6.39,6.71A6.87,6.87,0,0,1,2741,1420.43Z" transform="translate(-14.49 -336.17)"/><path class="cls-8" d="M2738.16,1369.16a5.47,5.47,0,0,1-2.64.89,480.22,480.22,0,0,1-101.87-3.78c-3.36-.48-5.8-3.92-5.46-7.68s3.35-6.42,6.71-5.93a469.65,469.65,0,0,0,99.55,3.69c3.37-.24,6.33,2.64,6.63,6.42A6.93,6.93,0,0,1,2738.16,1369.16Z" transform="translate(-14.49 -336.17)"/><path class="cls-8" d="M2734.36,1316a5.56,5.56,0,0,1-2.43.88,894.8,894.8,0,0,1-98.8,5.35c-3.38,0-6.18-3.08-6.26-6.87s2.58-6.87,6-6.86a883.17,883.17,0,0,0,97.61-5.29c3.35-.36,6.4,2.4,6.81,6.17A7,7,0,0,1,2734.36,1316Z" transform="translate(-14.49 -336.17)"/><path class="cls-9" d="M1970.77,1523.27a16.59,16.59,0,0,0-3.09-7.48c-2.14-2.56-5.33-3.81-8.63-4.65a10.72,10.72,0,0,1,.8.85,18.41,18.41,0,0,1,3.41,8.25,57,57,0,0,1-6.42,39.41,17.66,17.66,0,0,1-5.68,6.54c2.59.23,5.28.32,7.64-.74,2.76-1.23,4.65-3.83,6.16-6.45A51.65,51.65,0,0,0,1970.77,1523.27Z" transform="translate(-14.49 -336.17)"/><path class="cls-9" d="M1913.55,1186.89a9.11,9.11,0,0,0-1.46-2.9l-7.38-11.14c-4-6.09-9.28-12.86-16.59-12.91a16.24,16.24,0,0,0-7.67,2.22c8.37.39,14.41,8.2,19.09,15.26q4.38,6.6,8.75,13.2a10.67,10.67,0,0,1,1.73,3.43,5.43,5.43,0,0,1,.12,1.2c.48-.66,1-1.32,1.41-2C1912.83,1191.35,1914.05,1189.12,1913.55,1186.89Z" transform="translate(-14.49 -336.17)"/><path class="cls-10" d="M2003.31,1484.65l-373.14,1.11a15.06,15.06,0,0,1-15.05-15l-.65-220.5a15,15,0,0,1,15-15l373.14-1.11a15.06,15.06,0,0,1,15,15l.65,220.51A15,15,0,0,1,2003.31,1484.65Z" transform="translate(-14.49 -336.17)"/><polygon class="cls-11" points="1647.11 1070.04 1647.12 1073.27 1650.29 1071.32 1650.34 1090.17 1653.46 1090.16 1653.4 1067.91 1650.28 1067.92 1647.11 1070.04"/><path class="cls-11" d="M1683.21,1414.57a10.49,10.49,0,0,0,1.36-2.49,7,7,0,0,0,.48-2.46v0a6.25,6.25,0,0,0-.74-3.13,4.75,4.75,0,0,0-2.15-2,7.81,7.81,0,0,0-3.4-.67,6.52,6.52,0,0,0-3.11.72,5.86,5.86,0,0,0-2.19,2.07,8.42,8.42,0,0,0-1.11,3.28h3.23a3.67,3.67,0,0,1,1-2.28,3,3,0,0,1,2.2-.81,3.11,3.11,0,0,1,2.22.73,2.73,2.73,0,0,1,.79,2.06v0a4.94,4.94,0,0,1-.37,1.79,7.76,7.76,0,0,1-1,1.84l-7.73,10.37v2.71l12.55,0v-3l-8.42,0Z" transform="translate(-14.49 -336.17)"/><path class="cls-11" d="M1697.48,1414.63a5.08,5.08,0,0,0,2.55-1.81,4.84,4.84,0,0,0,.9-2.91v-.37a5.69,5.69,0,0,0-1.59-4.27,6.23,6.23,0,0,0-4.46-1.5,6.4,6.4,0,0,0-3,.68,5.79,5.79,0,0,0-2.14,2,8.21,8.21,0,0,0-1.15,3.13h3.17a4.13,4.13,0,0,1,.63-1.55,2.75,2.75,0,0,1,1.06-.93,3.3,3.3,0,0,1,1.43-.3,3.06,3.06,0,0,1,2.15.71,2.66,2.66,0,0,1,.76,2v.69a3.12,3.12,0,0,1-.72,2.2,2.58,2.58,0,0,1-2,.79h-1.57v3h1.57a2.94,2.94,0,0,1,2.3.9,3.77,3.77,0,0,1,.82,2.58v.67a3.05,3.05,0,0,1-.85,2.33,3.32,3.32,0,0,1-2.4.84,4.5,4.5,0,0,1-1.71-.3,2.8,2.8,0,0,1-1.19-.9,3.54,3.54,0,0,1-.6-1.56h-3.18a7.16,7.16,0,0,0,1.1,3.11,5.64,5.64,0,0,0,2.3,2,7.61,7.61,0,0,0,3.29.67,7.71,7.71,0,0,0,3.45-.73,5,5,0,0,0,2.18-2.11,7,7,0,0,0,.74-3.32V1420a5.92,5.92,0,0,0-1-3.55A4.53,4.53,0,0,0,1697.48,1414.63Z" transform="translate(-14.49 -336.17)"/><polygon class="cls-11" points="1703.59 1076.93 1700.54 1076.94 1700.56 1083.72 1694.36 1083.74 1701.6 1067.78 1698.38 1067.79 1690.96 1083.93 1690.97 1086.64 1700.57 1086.61 1700.58 1090.04 1703.63 1090.03 1703.61 1086.6 1705.28 1086.6 1705.27 1083.7 1703.61 1083.71 1703.59 1076.93"/><polygon class="cls-11" points="1732.11 1069.79 1732.12 1073.02 1735.29 1071.06 1735.34 1089.92 1738.46 1089.91 1738.4 1067.66 1735.28 1067.66 1732.11 1069.79"/><path class="cls-11" d="M1768.22,1414.31a10.55,10.55,0,0,0,1.35-2.48,6.83,6.83,0,0,0,.48-2.46v0a6.31,6.31,0,0,0-.74-3.14,4.79,4.79,0,0,0-2.15-2,7.67,7.67,0,0,0-3.4-.67,6.45,6.45,0,0,0-3.1.72,5.74,5.74,0,0,0-2.2,2.07,8.43,8.43,0,0,0-1.11,3.27v0h3.23v0a3.62,3.62,0,0,1,1-2.27,3,3,0,0,1,2.2-.81,3.11,3.11,0,0,1,2.22.72,2.71,2.71,0,0,1,.79,2.07v0a4.85,4.85,0,0,1-.37,1.78,7.93,7.93,0,0,1-1,1.85l-7.73,10.37v2.71l12.56,0v-3l-8.42,0Z" transform="translate(-14.49 -336.17)"/><path class="cls-11" d="M1782.48,1414.38a5.14,5.14,0,0,0,2.55-1.81,4.84,4.84,0,0,0,.9-2.92v-.36a5.69,5.69,0,0,0-1.59-4.27,6.15,6.15,0,0,0-4.46-1.5,6.36,6.36,0,0,0-3,.68,5.58,5.58,0,0,0-2.15,2,8.15,8.15,0,0,0-1.15,3.13h3.17a4.26,4.26,0,0,1,.63-1.56,2.81,2.81,0,0,1,1.06-.92,3.3,3.3,0,0,1,1.43-.3,3,3,0,0,1,2.15.71,2.66,2.66,0,0,1,.76,2v.68a3.14,3.14,0,0,1-.72,2.21,2.65,2.65,0,0,1-2,.79h-1.57v3h1.57a2.91,2.91,0,0,1,2.3.9,3.72,3.72,0,0,1,.82,2.58v.67a3.05,3.05,0,0,1-.85,2.33,3.32,3.32,0,0,1-2.4.83,4.24,4.24,0,0,1-1.7-.29,2.7,2.7,0,0,1-1.19-.91,3.34,3.34,0,0,1-.61-1.56h-3.18a7.33,7.33,0,0,0,1.1,3.12,5.62,5.62,0,0,0,2.3,2,8.47,8.47,0,0,0,6.74-.06,5,5,0,0,0,2.18-2.1,7,7,0,0,0,.74-3.32v-.37a6,6,0,0,0-1-3.55A4.53,4.53,0,0,0,1782.48,1414.38Z" transform="translate(-14.49 -336.17)"/><polygon class="cls-11" points="1788.59 1076.67 1785.54 1076.68 1785.56 1083.46 1779.36 1083.48 1786.6 1067.53 1783.38 1067.54 1775.96 1083.68 1775.97 1086.39 1785.57 1086.36 1785.58 1089.79 1788.63 1089.78 1788.62 1086.35 1790.28 1086.34 1790.28 1083.45 1788.61 1083.46 1788.59 1076.67"/><polygon class="cls-11" points="1817.11 1069.53 1817.12 1072.76 1820.29 1070.81 1820.34 1089.67 1823.46 1089.66 1823.4 1067.4 1820.28 1067.41 1817.11 1069.53"/><path class="cls-11" d="M1853.22,1414.06a10.38,10.38,0,0,0,1.35-2.48,6.64,6.64,0,0,0,.48-2.47h0a6.29,6.29,0,0,0-.74-3.14,4.79,4.79,0,0,0-2.15-2,7.67,7.67,0,0,0-3.4-.68,6.57,6.57,0,0,0-3.1.73,5.57,5.57,0,0,0-2.19,2.07,8.16,8.16,0,0,0-1.12,3.27h3.23v0a3.67,3.67,0,0,1,1-2.28,3.56,3.56,0,0,1,4.42-.08,2.71,2.71,0,0,1,.79,2.07v0a4.89,4.89,0,0,1-.37,1.78,7.93,7.93,0,0,1-1,1.85l-7.73,10.37v2.71l12.56,0v-3l-8.42,0Z" transform="translate(-14.49 -336.17)"/><path class="cls-11" d="M1867.48,1414.13a5.1,5.1,0,0,0,2.55-1.82,4.84,4.84,0,0,0,.9-2.91V1409a5.68,5.68,0,0,0-1.59-4.26,6.15,6.15,0,0,0-4.46-1.5,6.36,6.36,0,0,0-3,.68,5.65,5.65,0,0,0-2.15,2,8.14,8.14,0,0,0-1.14,3.13h3.16a4.12,4.12,0,0,1,.63-1.56,2.77,2.77,0,0,1,1.07-.92,3.22,3.22,0,0,1,1.42-.3,3,3,0,0,1,2.15.71,2.65,2.65,0,0,1,.76,2v.69a3.14,3.14,0,0,1-.72,2.21,2.58,2.58,0,0,1-2,.78h-1.58v3h1.57a2.91,2.91,0,0,1,2.3.91,3.68,3.68,0,0,1,.82,2.58v.67a3.05,3.05,0,0,1-.85,2.33,3.32,3.32,0,0,1-2.4.83,4.42,4.42,0,0,1-1.7-.29,2.7,2.7,0,0,1-1.19-.91,3.43,3.43,0,0,1-.61-1.56h-3.18a7.17,7.17,0,0,0,1.11,3.11,5.55,5.55,0,0,0,2.29,2,7.47,7.47,0,0,0,3.29.67,7.58,7.58,0,0,0,3.45-.73,5,5,0,0,0,2.18-2.1,7,7,0,0,0,.74-3.33v-.36a6,6,0,0,0-1-3.55A4.49,4.49,0,0,0,1867.48,1414.13Z" transform="translate(-14.49 -336.17)"/><polygon class="cls-11" points="1873.59 1076.42 1870.54 1076.43 1870.56 1083.21 1864.36 1083.23 1871.6 1067.28 1868.39 1067.28 1860.96 1083.42 1860.97 1086.13 1870.57 1086.11 1870.58 1089.53 1873.63 1089.53 1873.62 1086.1 1875.29 1086.09 1875.28 1083.2 1873.61 1083.2 1873.59 1076.42"/><polygon class="cls-11" points="1902.12 1069.28 1902.13 1072.51 1905.29 1070.56 1905.34 1089.41 1908.47 1089.41 1908.4 1067.15 1905.28 1067.16 1902.12 1069.28"/><path class="cls-11" d="M1938.22,1413.81a10.58,10.58,0,0,0,1.35-2.48,6.64,6.64,0,0,0,.48-2.47v0a6.25,6.25,0,0,0-.74-3.13,4.75,4.75,0,0,0-2.15-2,7.81,7.81,0,0,0-3.4-.67,6.57,6.57,0,0,0-3.1.72,5.67,5.67,0,0,0-2.19,2.08,8.16,8.16,0,0,0-1.12,3.27h3.23a3.67,3.67,0,0,1,1-2.28,3,3,0,0,1,2.2-.81,3.11,3.11,0,0,1,2.22.73,2.67,2.67,0,0,1,.79,2.06v0a4.94,4.94,0,0,1-.37,1.79,8.14,8.14,0,0,1-1,1.85l-7.73,10.37v2.71l12.55,0v-3l-8.42,0Z" transform="translate(-14.49 -336.17)"/><path class="cls-11" d="M1952.48,1413.87a5.07,5.07,0,0,0,2.56-1.81,4.83,4.83,0,0,0,.89-2.91v-.37a5.66,5.66,0,0,0-1.59-4.26,6.18,6.18,0,0,0-4.46-1.51,6.36,6.36,0,0,0-3,.69,5.65,5.65,0,0,0-2.15,2,8.16,8.16,0,0,0-1.14,3.12h3.16a4.31,4.31,0,0,1,.64-1.55,2.59,2.59,0,0,1,1.06-.92,3.37,3.37,0,0,1,1.42-.31,3,3,0,0,1,2.15.72,2.67,2.67,0,0,1,.77,2v.69a3.21,3.21,0,0,1-.71,2.21,2.62,2.62,0,0,1-2,.78h-1.58v3h1.58a2.89,2.89,0,0,1,2.29.91,3.67,3.67,0,0,1,.82,2.57v.68a3,3,0,0,1-.86,2.32,3.25,3.25,0,0,1-2.4.84,4.62,4.62,0,0,1-1.7-.29,2.76,2.76,0,0,1-1.19-.91,3.32,3.32,0,0,1-.6-1.56h-3.19a7.17,7.17,0,0,0,1.11,3.11,5.55,5.55,0,0,0,2.29,2,7.61,7.61,0,0,0,3.29.67,7.71,7.71,0,0,0,3.45-.73,4.92,4.92,0,0,0,2.18-2.1,7,7,0,0,0,.74-3.33v-.37a6,6,0,0,0-1-3.54A4.55,4.55,0,0,0,1952.48,1413.87Z" transform="translate(-14.49 -336.17)"/><polygon class="cls-11" points="1960.28 1082.95 1958.61 1082.95 1958.59 1076.17 1955.54 1076.18 1955.56 1082.96 1949.36 1082.98 1956.6 1067.02 1953.39 1067.03 1945.96 1083.17 1945.97 1085.88 1955.57 1085.85 1955.58 1089.28 1958.63 1089.27 1958.62 1085.84 1960.29 1085.84 1960.28 1082.95"/><path class="cls-12" d="M1656.69,1277.5a4.65,4.65,0,0,1,1.64-1.91,4.51,4.51,0,0,1,2.47-.68,4.42,4.42,0,0,1,2,.45,4.91,4.91,0,0,1,1.65,1.3,5.1,5.1,0,0,1,1,1.91h3.3a9,9,0,0,0-1.52-3.58,7.58,7.58,0,0,0-2.78-2.38,7.94,7.94,0,0,0-3.63-.84,8.22,8.22,0,0,0-4.2,1.08,7.28,7.28,0,0,0-2.79,3,9.69,9.69,0,0,0-1,4.51v6.3a9.88,9.88,0,0,0,1,4.5,7.23,7.23,0,0,0,2.82,3,8.08,8.08,0,0,0,4.2,1,7.87,7.87,0,0,0,3.61-.85,7.75,7.75,0,0,0,2.78-2.41,9,9,0,0,0,1.5-3.59h-3.3a5,5,0,0,1-1,2,4.52,4.52,0,0,1-1.64,1.26,4.6,4.6,0,0,1-2,.44,4.5,4.5,0,0,1-2.47-.67,4.39,4.39,0,0,1-1.65-1.9,6.52,6.52,0,0,1-.59-2.84l0-6.3A6.58,6.58,0,0,1,1656.69,1277.5Z" transform="translate(-14.49 -336.17)"/><path class="cls-12" d="M1685.61,1284.36A5.86,5.86,0,0,0,1688,1282a7.71,7.71,0,0,0,0-7,5.71,5.71,0,0,0-2.34-2.33,7.32,7.32,0,0,0-3.5-.81l-5.9,0H1673l.07,23h3.22l0-9.72h4.8l4.93,9.7h3.83l-5.34-10.05A6.28,6.28,0,0,0,1685.61,1284.36Zm-9.41-9.36h6a3,3,0,0,1,1.64.43,2.93,2.93,0,0,1,1.09,1.26,4.4,4.4,0,0,1,.4,1.87,4.28,4.28,0,0,1-.39,1.87,2.92,2.92,0,0,1-1.09,1.26,3,3,0,0,1-1.63.45l-6,0Z" transform="translate(-14.49 -336.17)"/><polygon class="cls-12" points="1681.13 935.72 1679.57 935.73 1679.64 958.7 1681.2 958.7 1682.86 958.69 1694.4 958.66 1694.39 955.59 1682.85 955.63 1682.83 948.82 1692.63 948.79 1692.62 945.72 1682.82 945.75 1682.8 938.78 1694.34 938.75 1694.33 935.68 1682.79 935.72 1681.13 935.72"/><path class="cls-12" d="M1725.42,1272.77a10.7,10.7,0,0,0-4.73-1h-7.28l.06,23h7.27a10.66,10.66,0,0,0,4.73-1,6.75,6.75,0,0,0,3-2.82,9,9,0,0,0,1-4.46l0-6.51a9,9,0,0,0-1-4.46A6.71,6.71,0,0,0,1725.42,1272.77Zm.75,13.9a4.88,4.88,0,0,1-1.39,3.73,5.51,5.51,0,0,1-3.94,1.33h-4.15l0-16.84h4.15a5.52,5.52,0,0,1,4,1.3,4.85,4.85,0,0,1,1.41,3.72Z" transform="translate(-14.49 -336.17)"/><rect class="cls-12" x="1734.36" y="1271.78" width="3.22" height="22.98" transform="translate(-18.31 -331) rotate(-0.17)"/><polygon class="cls-12" points="1726.86 938.65 1733.35 938.63 1733.41 958.54 1736.63 958.53 1736.58 938.62 1743.07 938.6 1743.06 935.54 1726.85 935.59 1726.86 938.65"/><path class="cls-12" d="M1772.2,1277.16a4.58,4.58,0,0,1,1.64-1.91,4.52,4.52,0,0,1,2.47-.69,4.43,4.43,0,0,1,2,.46,4.88,4.88,0,0,1,1.65,1.29,5.22,5.22,0,0,1,1,1.92h3.3a8.8,8.8,0,0,0-1.52-3.58,7.61,7.61,0,0,0-2.78-2.39,7.81,7.81,0,0,0-3.63-.83,8,8,0,0,0-4.2,1.08,7.22,7.22,0,0,0-2.79,3,9.65,9.65,0,0,0-1,4.5v6.31a9.94,9.94,0,0,0,1,4.5,7.21,7.21,0,0,0,2.82,3,8.18,8.18,0,0,0,4.2,1,7.88,7.88,0,0,0,3.61-.86,7.72,7.72,0,0,0,2.78-2.4,9,9,0,0,0,1.5-3.59H1781a5,5,0,0,1-1,2,4.64,4.64,0,0,1-3.6,1.7,4.33,4.33,0,0,1-4.12-2.56,6.55,6.55,0,0,1-.59-2.84l0-6.31A6.56,6.56,0,0,1,1772.2,1277.16Z" transform="translate(-14.49 -336.17)"/><path class="cls-12" d="M1794.1,1271.6l-8.4,23h3.48l1.72-5,9.27,0,1.75,5h3.47l-8.54-23Zm-2.16,14.88,3.55-10.44,3.62,10.42Z" transform="translate(-14.49 -336.17)"/><path class="cls-12" d="M1821.44,1284a5.86,5.86,0,0,0,2.34-2.34,7.17,7.17,0,0,0,.83-3.49,7.28,7.28,0,0,0-.84-3.48,5.77,5.77,0,0,0-2.35-2.32,7.07,7.07,0,0,0-3.5-.81h-9.12l.07,23h3.22l0-9.71,4.8,0,4.93,9.71,3.83,0-5.34-10A5.64,5.64,0,0,0,1821.44,1284Zm-9.41-9.36,6,0a3.07,3.07,0,0,1,1.64.44,2.9,2.9,0,0,1,1.09,1.25,4.43,4.43,0,0,1,.4,1.87,4.48,4.48,0,0,1-.38,1.88,2.89,2.89,0,0,1-2.73,1.7l-6,0Z" transform="translate(-14.49 -336.17)"/><path class="cls-12" d="M1844.9,1275.23a6.73,6.73,0,0,0-3-2.81,10.84,10.84,0,0,0-4.73-1l-4.06,0h-3.22l.06,23h7.27a10.66,10.66,0,0,0,4.73-1,6.64,6.64,0,0,0,3-2.82,9,9,0,0,0,1-4.46l0-6.51A9,9,0,0,0,1844.9,1275.23Zm-2.24,11.1a4.87,4.87,0,0,1-1.39,3.72,5.46,5.46,0,0,1-3.94,1.33l-4.15,0,0-16.85h4.15a5.53,5.53,0,0,1,4,1.31,4.81,4.81,0,0,1,1.41,3.71Z" transform="translate(-14.49 -336.17)"/><polygon class="cls-13" points="1658.36 1120.35 1652.06 1110.47 1650.38 1110.47 1650.42 1123.71 1652.26 1123.71 1652.23 1113.96 1658.5 1123.69 1660.2 1123.68 1660.17 1110.44 1658.33 1110.45 1658.36 1120.35"/><path class="cls-13" d="M1681.37,1446.6l-4.85,13.26h2l1-2.91,5.35,0,1,2.9h2l-4.93-13.24Zm-1.25,8.58,2.05-6,2.08,6Z" transform="translate(-14.49 -336.17)"/><polygon class="cls-13" points="1681.01 1119.13 1677.09 1110.39 1675.35 1110.4 1675.39 1123.65 1677.2 1123.64 1677.17 1114.69 1680.37 1121.79 1681.66 1121.79 1684.81 1114.49 1684.84 1123.62 1686.65 1123.62 1686.61 1110.37 1684.87 1110.37 1681.01 1119.13"/><polygon class="cls-13" points="1690.8 1110.35 1689.89 1110.36 1689.93 1123.61 1690.84 1123.6 1691.79 1123.6 1698.44 1123.58 1698.44 1121.81 1691.79 1121.83 1691.78 1117.9 1697.42 1117.89 1697.42 1116.12 1691.77 1116.14 1691.76 1112.12 1698.41 1112.1 1698.4 1110.33 1691.75 1110.35 1690.8 1110.35"/><path class="cls-13" d="M1727.53,1452.85a11.19,11.19,0,0,0-2-.58l-.1,0h-.1l-.07,0h-.07a15.78,15.78,0,0,1-1.61-.38,2.38,2.38,0,0,1-1-.58,1.45,1.45,0,0,1-.39-1.07h0a1.75,1.75,0,0,1,.74-1.54,3.58,3.58,0,0,1,2.11-.55,4.42,4.42,0,0,1,1.51.27,6.29,6.29,0,0,1,1.51.83l1.05-1.48a8,8,0,0,0-1.32-.76,6.94,6.94,0,0,0-1.35-.46,6.59,6.59,0,0,0-1.4-.15,6.53,6.53,0,0,0-2.55.46,3.52,3.52,0,0,0-1.6,1.33,3.88,3.88,0,0,0-.55,2.11h0a3.56,3.56,0,0,0,.6,2.16,3.14,3.14,0,0,0,1.43,1,14.34,14.34,0,0,0,2.17.51l.14,0h.11a9.3,9.3,0,0,1,1.48.35,2.14,2.14,0,0,1,.93.6,1.6,1.6,0,0,1,.36,1.1h0a1.72,1.72,0,0,1-.79,1.51,4.07,4.07,0,0,1-2.23.54,5.79,5.79,0,0,1-2-.33,5.32,5.32,0,0,1-1.67-1l-1.15,1.42a6.93,6.93,0,0,0,1.39.91,7,7,0,0,0,1.6.54,8.85,8.85,0,0,0,1.82.18,7.11,7.11,0,0,0,2.63-.46,3.45,3.45,0,0,0,2.22-3.39v0a3.4,3.4,0,0,0-.55-2.06A3.07,3.07,0,0,0,1727.53,1452.85Z" transform="translate(-14.49 -336.17)"/><path class="cls-13" d="M1739,1455a3.18,3.18,0,0,1-.73,2.24,3.08,3.08,0,0,1-4.13,0,3.2,3.2,0,0,1-.74-2.24l0-8.52h-1.86l0,8.46a5.9,5.9,0,0,0,.55,2.66,3.77,3.77,0,0,0,1.6,1.68,5.14,5.14,0,0,0,2.51.57,5.21,5.21,0,0,0,2.52-.58,3.82,3.82,0,0,0,1.59-1.69,6.05,6.05,0,0,0,.54-2.67l0-8.46H1739Z" transform="translate(-14.49 -336.17)"/><path class="cls-13" d="M1751,1453.56a3.31,3.31,0,0,0,1.35-1.35,4.09,4.09,0,0,0,.48-2,4.14,4.14,0,0,0-.49-2,3.29,3.29,0,0,0-1.35-1.34,4.13,4.13,0,0,0-2-.47h-5.26l0,13.26h1.86l0-5.61h2.77l2.84,5.6h2.21l-3.09-5.81A3.09,3.09,0,0,0,1751,1453.56Zm-5.43-5.39,3.48,0a1.75,1.75,0,0,1,.94.26,1.71,1.71,0,0,1,.63.72,2.7,2.7,0,0,1,0,2.16,1.73,1.73,0,0,1-.63.73,1.76,1.76,0,0,1-.94.25h-3.47Z" transform="translate(-14.49 -336.17)"/><polygon class="cls-13" points="1749.38 1120.08 1743.09 1110.2 1741.4 1110.2 1741.44 1123.44 1743.28 1123.44 1743.25 1113.69 1749.52 1123.42 1751.23 1123.41 1751.19 1110.17 1749.35 1110.18 1749.38 1120.08"/><path class="cls-13" d="M1772.39,1446.33l-4.84,13.26h2l1-2.91,5.35,0,1,2.9h2l-4.92-13.24Zm-1.25,8.58,2-6,2.09,6Z" transform="translate(-14.49 -336.17)"/><polygon class="cls-13" points="1772.03 1118.86 1768.11 1110.12 1766.37 1110.13 1766.41 1123.38 1768.22 1123.37 1768.2 1114.42 1771.39 1121.52 1772.68 1121.52 1775.83 1114.22 1775.86 1123.35 1777.67 1123.35 1777.64 1110.09 1775.89 1110.1 1772.03 1118.86"/><polygon class="cls-13" points="1789.43 1111.83 1789.43 1110.06 1782.78 1110.08 1781.82 1110.08 1780.92 1110.09 1780.96 1123.34 1781.86 1123.33 1782.82 1123.33 1789.47 1123.31 1789.46 1121.54 1782.81 1121.56 1782.8 1117.63 1788.45 1117.62 1788.44 1115.85 1782.79 1115.87 1782.78 1111.85 1789.43 1111.83"/><circle class="cls-10" cx="1946.18" cy="1287.93" r="17.47" transform="translate(532.34 2819.43) rotate(-86.65)"/><path class="cls-10" d="M1969.13,1270.39a17.33,17.33,0,0,0-7.8,1.88,21.76,21.76,0,0,1,.1,31.22,17.46,17.46,0,1,0,7.7-33.1Z" transform="translate(-14.49 -336.17)"/><path class="cls-10" d="M1924.39,1288a21.72,21.72,0,0,1,6.55-15.63,17.46,17.46,0,1,0,.1,31.23A21.7,21.7,0,0,1,1924.39,1288Z" transform="translate(-14.49 -336.17)"/><path class="cls-10" d="M1705.28,1334.65a13.9,13.9,0,1,0,13.94,13.85A13.9,13.9,0,0,0,1705.28,1334.65Z" transform="translate(-14.49 -336.17)"/><path class="cls-10" d="M1687.77,1346.72a17.65,17.65,0,0,1,35.1-.11l26.8-.08-.06-19.29a8.79,8.79,0,0,0-8.79-8.74l-71.17.21a8.79,8.79,0,0,0-8.74,8.79l.06,19.3Z" transform="translate(-14.49 -336.17)"/><path class="cls-10" d="M1722.88,1350.37a17.65,17.65,0,0,1-35.1.1l-26.8.08.06,19.3a8.79,8.79,0,0,0,8.79,8.74l71.17-.21a8.8,8.8,0,0,0,8.74-8.8l-.06-19.29Z" transform="translate(-14.49 -336.17)"/><path class="cls-14" d="M2215.81,1413.83c8-7,17.8-11.53,26.42-17.73s16.42-14.95,17.3-25.53c.5-6-1.25-11.83-3.09-17.51q-6.81-21.13-15.44-41.62c-1.79-4.25-3.69-8.55-6.8-12-7.28-8-22.45-13.11-33.49-9.38,11.06,12.51,50.72,61.4,22.58,90.53-22.71,17.21-49.38,46.5-62.55,61.58,6.26,3.8,13.73,5.33,20.69,3.13a32.84,32.84,0,0,0,11.68-7.12C2201.42,1430.83,2207.44,1421.14,2215.81,1413.83Z" transform="translate(-14.49 -336.17)"/><path class="cls-3" d="M1258.49,1583.25l-20.61,2.7s-94.54,1.47-138.92,7.67a1436,1436,0,0,1-267.42-28.45c-81.87-16.6-168.54-40.09-246.75-10.73-33.9,12.72-64.82,32.16-100.23,41.16-6.69,1.7-14.46,2.33-22.45,3-25.71,1.71-65.4.28-89.21-.87,10.6,53,8.78,117,5.82,158.17h1.76c27.5-.65,47.38,3.87,47.38,3.87h0c52.91,19.23,108.46,38.77,164.21,31,20.83-2.93,40.91-9.6,61.15-15.34,96.45-27.31,197.41-33.36,297.33-41.36,21.73-1.73,43.74-3.63,64.25-11,19-6.85,36.11-18.21,55-25.4,19.59-7.44,40.59-10.22,61.37-12.94l208.34-27.27c12.61-1.65,26.31-3.84,35-13.17a26.64,26.64,0,0,0,7-17.3C1383.39,1607.37,1375.85,1562.42,1258.49,1583.25Z" transform="translate(-14.49 -336.17)"/><path class="cls-5" d="M1308.18,1648a271.91,271.91,0,0,0,48.27-7.85c4.52-1.16,9.32-2.43,13.77-1s7.93,6.79,5.61,10.84c-1.08,1.87-3.08,3-5,3.9-11,5.13-23.34,6.5-35.41,7.8l-30.35,3.27c-4.76.51-7.49-5-7.78-9.32C1296.84,1649.64,1303.54,1648.3,1308.18,1648Z" transform="translate(-14.49 -336.17)"/><path class="cls-9" d="M1301.62,1654.24a7.64,7.64,0,0,1,1.6-5.47c-3.34.94-6.24,2.85-6,6.83.29,4.36,3,9.83,7.78,9.32l1.19-.13C1303.43,1662.94,1301.84,1658.21,1301.62,1654.24Z" transform="translate(-14.49 -336.17)"/><path class="cls-4" d="M1258.49,1583.25l-20.61,2.7s-94.54,1.47-138.92,7.67a1436,1436,0,0,1-267.42-28.45c-81.87-16.6-168.54-40.09-246.75-10.73-33.9,12.72-64.82,32.16-100.23,41.16-6.75,1.72-14.59,2.34-22.64,3h0c-25.72,1.69-65.28.27-89-.88,10.6,53,8.78,117,5.82,158.16h1.76c27.5-.65,47.38,3.87,47.38,3.87,52.91,19.23,108.46,38.77,164.21,31,17.95-2.52,35.35-7.83,52.76-12.91a86.93,86.93,0,0,0-34.75-8.81c-12.64-.47-25.24,1.83-37.9,2-32.78.5-64-13-94-26.22-6.11-2.69-12.25-5.41-18.19-8.47h0a478.23,478.23,0,0,0-46.24-17.83c2.38-23,.23-50.62-2.32-71.56h0l-.24-2c-.29-5.33,1.53-19.72,29.61-20.14h0l2.79-.07,11.55-.56s29.6-1.64,55.32-9.17h0c14.64-4.52,29.27-9,44.34-11.69,1.33-.24,2.67-.46,4-.67,32.94-3.29,66.45,4.62,96.83,17,40.31,16.43,76.94,40.63,116,59.86,15.89,7.83,32.79,14.86,50.31,18.08,26.42,4.85,54-6,78-16.34,17.29-7.46,33.53-17.73,51.79-22.33,24.08-6,49.74-1.76,74-7,13.15-2.84,25.53-8.4,38.29-12.7,23.25-7.83,47.68-11.43,72-15l45.74-6.71c1.31-.2,4.27-.53,7.55-1.08q46.71-5.07,93.14-12.55c26.93-4.34,58.11-8.12,78.22,10.31,8.32,7.62,13,18.09,14.41,29.23a25.54,25.54,0,0,0,4.71-8.09v0s0-.08.07-.23a28.64,28.64,0,0,0,1.57-8.18C1383.41,1607.47,1376,1562.4,1258.49,1583.25Z" transform="translate(-14.49 -336.17)"/><path class="cls-15" d="M14.49,1834V1525.36l272.06,19.18s34,157.83,7,277.29Z" transform="translate(-14.49 -336.17)"/><path class="cls-16" d="M374.63,1798.16l0-.09V1798c1-7.43,20.8-162.56-14.9-244.06l-71.83-2.57c1.13,5.84,2.85,15.2,4.74,27.24L178,1584.46c-30,1.94-4.85,6.4-4.85,6.4l123.48,15.94c6.58,51.63,12.05,127.23.84,194.63l77.11-3.15Z" transform="translate(-14.49 -336.17)"/><ellipse class="cls-17" cx="246.18" cy="1227.55" rx="11.48" ry="5.81"/><path class="cls-18" d="M268.24,1560.19a3,3,0,0,1,.43,1.39c.05,1.44-1.24,2.49-2.47,3.08a13.27,13.27,0,0,1-10.25.54,4,4,0,0,1-2.5-2,3.47,3.47,0,0,1,.66-3.29,6.34,6.34,0,0,1,1.67-1.43c-3.89.93-6.58,2.93-6.58,5.25,0,3.21,5.14,5.81,11.48,5.81s11.48-2.6,11.48-5.81c0-2-2-3.71-4.92-4.76A4.82,4.82,0,0,1,268.24,1560.19Z" transform="translate(-14.49 -336.17)"/><path class="cls-17" d="M301.72,1551.87l-13.8-.49c1.13,5.84,2.85,15.2,4.74,27.24L178,1584.46c-30,1.94-4.85,6.4-4.85,6.4l123.48,15.94c6.58,51.63,12.05,127.23.84,194.63l13.31-.54C316.94,1767.09,329.08,1672.28,301.72,1551.87Z" transform="translate(-14.49 -336.17)"/><path class="cls-19" d="M14.49,1804.62V1834l279-12.21a423.72,423.72,0,0,0,8.91-62.54Z" transform="translate(-14.49 -336.17)"/><rect class="cls-20" x="579.59" y="708.07" width="817.86" height="541.75"/><polygon class="cls-21" points="861.26 970.32 695.96 708.07 579.59 708.07 579.59 1249.81 1397.45 1249.81 1397.45 1096.71 861.26 970.32"/><rect class="cls-22" x="559" y="663.76" width="859.04" height="44.3"/><path class="cls-23" d="M651,1500.58,666,1475s3.47-3.72,6.21,0l12.67,22-3.9,3.53h11l4.51-10.48-5.12,3.05-13.28-23a10.58,10.58,0,0,0-9-4.51,11.5,11.5,0,0,0-9.14,5.12l-15.1,25.71Z" transform="translate(-14.49 -336.17)"/><path class="cls-23" d="M690,1505.61l14.41,25.91s1.44,4.88-3.16,5.35l-25.43-.3-1.06-5.15-5.58,9.44,6.73,9.21,0-6,26.59.28a10.58,10.58,0,0,0,8.46-5.47,11.47,11.47,0,0,0,.24-10.47l-14.45-26.09Z" transform="translate(-14.49 -336.17)"/><path class="cls-23" d="M666.49,1537H636.84s-5-1.12-3.14-5.36l12.62-22.08,5,1.57-5.54-9.46-11.32,1.41,5.22,2.87L626.54,1529a10.57,10.57,0,0,0,.66,10.06,11.49,11.49,0,0,0,9,5.3l29.82,0Z" transform="translate(-14.49 -336.17)"/><path class="cls-23" d="M714.85,1557.77H626.46a8,8,0,0,1-8-8V1466.3a8.05,8.05,0,0,1,8-8h88.39a8.05,8.05,0,0,1,8,8v83.43A8,8,0,0,1,714.85,1557.77Zm-88.39-95.28a3.82,3.82,0,0,0-3.81,3.81v83.43a3.82,3.82,0,0,0,3.81,3.81h88.39a3.82,3.82,0,0,0,3.81-3.81V1466.3a3.82,3.82,0,0,0-3.81-3.81Z" transform="translate(-14.49 -336.17)"/><path class="cls-23" d="M1325.56,1465.35h-3.89l3.19,14.4H1318l2.76,18.87-10-23.35h6.49l-3.26-9.92h-13.35v16.59c0,21.73,17.9,24.71,22.08,25.11v33.82H1310.2a1.52,1.52,0,1,0,0,3h30.72a1.52,1.52,0,1,0,0-3h-12.55v-33.82c4.18-.4,22.08-3.38,22.08-25.11v-16.59Z" transform="translate(-14.49 -336.17)"/><path class="cls-23" d="M1369.76,1557.77h-88.4a8,8,0,0,1-8-8V1466.3a8,8,0,0,1,8-8h88.4a8,8,0,0,1,8,8v83.43A8,8,0,0,1,1369.76,1557.77Zm-88.4-95.28a3.81,3.81,0,0,0-3.8,3.81v83.43a3.81,3.81,0,0,0,3.8,3.81h88.4a3.81,3.81,0,0,0,3.8-3.81V1466.3a3.81,3.81,0,0,0-3.8-3.81Z" transform="translate(-14.49 -336.17)"/><polygon class="cls-22" points="987.56 758.16 987.56 1199.72 932.63 1199.72 932.63 1249.81 1044.4 1249.81 1044.4 1199.72 989.48 1199.72 989.48 758.16 1044.4 758.16 1044.4 708.07 932.63 708.07 932.63 758.16 987.56 758.16"/><path class="cls-23" d="M1432.53,995.45h-859a4.49,4.49,0,0,0-4.49,4.49v44.3a4.49,4.49,0,0,0,4.49,4.49h16.1V1586a4.49,4.49,0,0,0,4.49,4.48h817.85a4.49,4.49,0,0,0,4.49-4.48V1048.73h16.1a4.49,4.49,0,0,0,4.49-4.49v-44.3A4.49,4.49,0,0,0,1432.53,995.45Zm-25.07,586.05H598.57V1048.73h808.89Zm20.59-541.75H578v-35.33h850.07Z" transform="translate(-14.49 -336.17)"/><path class="cls-3" d="M725.92,1544c43.28-12.12,90-9.63,132.9,3.79,20.95,6.55,41.5,15.72,63.41,16.86,32.78,1.71,63.36-14.61,94.21-25.83a315.55,315.55,0,0,1,59.26-15.2c15.57-2.41,32-3.56,46.65,2.19s27,20.17,25.62,35.87c-1.26,14.62-13.55,26-26.74,32.48s-27.87,9.37-41.08,15.77c-17.11,8.28-31.29,22.14-49.08,28.85-18.4,6.94-38.74,5.55-58.21,8.34-57.51,8.23-103.85,52-159.84,67.55-50.49,14-105.49,3.58-152.39-19.79-14.81-7.38-29.49-16.48-38.52-30.36C586.11,1609.17,684.82,1555.5,725.92,1544Z" transform="translate(-14.49 -336.17)"/><path class="cls-4" d="M1143.58,1560c-4.4-10.89-14.61-18.74-25.81-22.27s-23.3-3.16-34.86-1.15c-26.11,4.53-50.06,17-73.53,29.31l-39.85,20.89c-11,5.76-22.21,11.6-34.45,13.59-25.93,4.23-51-9.22-75.57-18.48a250.16,250.16,0,0,0-165-3.42c-18.71,6.17-36.91,14.74-51.77,27.67-14.38,12.51-23.35,28-27.08,44.17-13-50,72.66-95.77,110.22-106.29,43.28-12.12,90-9.63,132.9,3.79,20.95,6.55,41.5,15.72,63.41,16.86,32.78,1.71,63.36-14.61,94.21-25.83a315.55,315.55,0,0,1,59.26-15.2c15.57-2.41,32-3.56,46.65,2.19s27,20.17,25.62,35.87a29.62,29.62,0,0,1-2,8.28A37.07,37.07,0,0,0,1143.58,1560Z" transform="translate(-14.49 -336.17)"/><path class="cls-5" d="M1097.64,1531.84c11.3-4.91,24.51-8.88,35.67-3.69a27.45,27.45,0,0,1,13.74,15.43,38.42,38.42,0,0,1,1.25,20.75,25.24,25.24,0,0,1-4.69,11.1,30.93,30.93,0,0,1-7.86,6.36,153.1,153.1,0,0,1-41.4,18c-3.53,1-7.28,1.77-10.79.79a17.62,17.62,0,0,1-6.77-4.12,43.82,43.82,0,0,1-13.66-38.59c1.11-7.35,3.25-9.67,9.62-13.4A230.69,230.69,0,0,1,1097.64,1531.84Z" transform="translate(-14.49 -336.17)"/><path class="cls-9" d="M1086.92,1595.71c-12.46-11.15-18.4-28.68-15.93-45a28.18,28.18,0,0,1,1.49-6.07c-6.16,3.64-8.26,6-9.35,13.24a43.82,43.82,0,0,0,13.66,38.59,17.62,17.62,0,0,0,6.77,4.12c3.21.89,6.62.28,9.87-.55A22.57,22.57,0,0,1,1086.92,1595.71Z" transform="translate(-14.49 -336.17)"/><path class="cls-24" d="M1077.4,1224.08a10,10,0,0,0-14.12,1.46l-99.64,122.52-30.8-34.82a10,10,0,1,0-15,13.3l38.64,43.68a10,10,0,0,0,7.52,3.39h.21a10,10,0,0,0,7.58-3.7l107.1-131.7A10,10,0,0,0,1077.4,1224.08Z" transform="translate(-14.49 -336.17)"/><path class="cls-24" d="M1003,1439a143.76,143.76,0,1,1,101.66-42.1A142.81,142.81,0,0,1,1003,1439Zm0-279c-74.58,0-135.26,60.68-135.26,135.26s60.68,135.27,135.26,135.27,135.27-60.68,135.27-135.27S1077.6,1160,1003,1160Z" transform="translate(-14.49 -336.17)"/></svg>