<svg xmlns="http://www.w3.org/2000/svg" viewBox="0 0 1493.21 1493.21"><defs><style>.cls-1{fill:#3897f1;}.cls-2{fill:#fff;}</style></defs><g id="Layer_2" data-name="Layer 2"><g id="Badge_1_-_Orange" data-name="Badge 1 - Orange"><path class="cls-1" d="M2746.21,1677.14c0,61.69-121,106.67-136.24,163.6-15.7,58.89,66.13,158.27,36.29,209.81-30.23,52.27-157.49,30.85-200,73.3s-21,169.66-73.31,200c-51.54,29.83-150.93-52.05-209.76-36.29-56.93,15.2-101.91,136.23-163.61,136.23s-106.73-121-163.6-136.23c-58.9-15.76-158.28,66.12-209.83,36.29-52.33-30.29-30.9-157.49-73.3-200s-169.72-21-200-73.3c-29.84-51.54,52-150.92,36.28-209.81C1374,1783.81,1253,1738.83,1253,1677.14s121-106.68,136.23-163.6c15.76-58.89-66.12-158.28-36.28-209.82,30.23-52.27,157.49-30.84,200-73.3s21-169.66,73.3-199.94c51.55-29.84,150.93,52,209.83,36.28,56.92-15.2,101.91-136.23,163.6-136.23s106.68,121,163.61,136.23c58.89,15.76,158.28-66.07,209.82-36.28,52.27,30.28,30.85,157.54,73.31,199.94s169.66,21,199.89,73.36c29.84,51.54-52,150.87-36.23,209.76C2625.23,1570.46,2746.21,1615.44,2746.21,1677.14Z" transform="translate(-1253 -930.53)"/><polygon class="cls-2" points="666.33 1026.85 430.2 790.72 531.89 689.03 666.33 823.48 1016.48 473.32 1118.17 575.01 666.33 1026.85"/></g></g></svg>