<svg id="Layer_1" data-name="Layer 1" xmlns="http://www.w3.org/2000/svg" viewBox="0 0 170.25 130.17"><defs><style>.cls-1{fill:#1c3963;}.cls-2{fill:#3772b9;}.cls-3{fill:#688ebc;}.cls-4{fill:#4bb1cb;}</style></defs><rect class="cls-1" x="455.35" y="566.37" width="15.18" height="66.13" rx="7.58" transform="translate(-708.34 48.13) rotate(-50.92)"/><rect class="cls-1" x="441.69" y="607" width="10.99" height="66.13" rx="4.57" transform="translate(-607 554.48) rotate(-90)"/><rect class="cls-1" x="445.77" y="604.64" width="4.38" height="49.06" rx="1.88" transform="translate(-595.33 544.35) rotate(-90)"/><path class="cls-2" d="M491.53,595.74l-30-24.33a5.77,5.77,0,0,0-8.12.83l0,0a5.76,5.76,0,0,0,.84,8.11l30,24.34a5.78,5.78,0,0,0,8.12-.84l0,0A5.78,5.78,0,0,0,491.53,595.74Zm-16.82-7.56-1.33,1.64a1.43,1.43,0,0,1-2,.21l-3.25-2.64a1.45,1.45,0,0,1-.22-2l1.33-1.64a1.46,1.46,0,0,1,2-.21l3.25,2.64A1.44,1.44,0,0,1,474.71,588.18Z" transform="translate(-414.12 -532.78)"/><path class="cls-3" d="M499.48,586l-30-24.34a5.78,5.78,0,0,0-8.12.84l0,0a5.76,5.76,0,0,0,.84,8.11l30,24.35a5.78,5.78,0,0,0,8.12-.84l0,0A5.79,5.79,0,0,0,499.48,586Zm-11.59-2-.06.07a2.46,2.46,0,0,1-3.45.36l-11.05-9A2.45,2.45,0,0,1,473,572l.06-.07a2.45,2.45,0,0,1,3.44-.36l11,9A2.46,2.46,0,0,1,487.89,584Z" transform="translate(-414.12 -532.78)"/><path class="cls-4" d="M507.42,576.19l-30-24.35a5.77,5.77,0,0,0-8.11.85l0,0a5.78,5.78,0,0,0,.83,8.12l30,24.34a5.77,5.77,0,0,0,8.12-.85l0,0A5.76,5.76,0,0,0,507.42,576.19Zm-12.35-3.1-.51.63a2.1,2.1,0,0,1-2.95.31l-7.6-6.18a2.09,2.09,0,0,1-.3-3l.51-.62a2.1,2.1,0,0,1,2.95-.31l7.6,6.17A2.1,2.1,0,0,1,495.07,573.09Z" transform="translate(-414.12 -532.78)"/><rect class="cls-1" x="490.31" y="523.35" width="15.18" height="66.23" rx="7.59" transform="translate(-662.06 59.39) rotate(-50.92)"/><rect class="cls-1" x="536.41" y="579.12" width="15.18" height="99.16" rx="7.12" transform="translate(-701.1 121.87) rotate(-50.92)"/><circle class="cls-4" cx="44.28" cy="43.41" r="2.41"/><circle class="cls-4" cx="74.21" cy="67.52" r="2.41"/><circle class="cls-4" cx="82" cy="57.92" r="2.41"/><circle class="cls-1" cx="89.94" cy="48.14" r="2.41"/><circle class="cls-4" cx="52.17" cy="33.69" r="2.41"/><circle class="cls-1" cx="60.11" cy="23.91" r="2.41"/></svg>