<svg id="Layer_1" data-name="Layer 1" xmlns="http://www.w3.org/2000/svg" viewBox="0 0 149.8 131.17"><defs><style>.cls-1,.cls-5{fill:#1c3963;}.cls-1{stroke:#00aeef;stroke-miterlimit:10;}.cls-2{fill:#3772b9;}.cls-3{fill:#688ebc;}.cls-4{fill:#4bb1cb;}</style></defs><rect class="cls-1" x="455.35" y="566.37" width="15.18" height="66.13" rx="7.58" transform="translate(-729.29 48.63) rotate(-50.92)"/><path class="cls-2" d="M491.53,595.74l-30-24.33a5.77,5.77,0,0,0-8.12.83l0,0a5.76,5.76,0,0,0,.84,8.11l30,24.34a5.78,5.78,0,0,0,8.12-.84l0,0A5.78,5.78,0,0,0,491.53,595.74Zm-16.82-7.56-1.33,1.64a1.43,1.43,0,0,1-2,.21l-3.25-2.64a1.45,1.45,0,0,1-.22-2l1.33-1.64a1.46,1.46,0,0,1,2-.21l3.25,2.64A1.44,1.44,0,0,1,474.71,588.18Z" transform="translate(-435.07 -532.28)"/><path class="cls-3" d="M499.48,586l-30-24.34a5.78,5.78,0,0,0-8.12.84l0,0a5.76,5.76,0,0,0,.84,8.11l30,24.35a5.78,5.78,0,0,0,8.12-.84l0,0A5.79,5.79,0,0,0,499.48,586Zm-11.59-2-.06.07a2.46,2.46,0,0,1-3.45.36l-11.05-9A2.45,2.45,0,0,1,473,572l.06-.07a2.45,2.45,0,0,1,3.44-.36l11,9A2.46,2.46,0,0,1,487.89,584Z" transform="translate(-435.07 -532.28)"/><path class="cls-4" d="M507.42,576.19l-30-24.35a5.77,5.77,0,0,0-8.11.85l0,0a5.78,5.78,0,0,0,.83,8.12l30,24.34a5.77,5.77,0,0,0,8.12-.85l0,0A5.76,5.76,0,0,0,507.42,576.19Zm-12.35-3.1-.51.63a2.1,2.1,0,0,1-2.95.31l-7.6-6.18a2.09,2.09,0,0,1-.3-3l.51-.62a2.1,2.1,0,0,1,2.95-.31l7.6,6.17A2.1,2.1,0,0,1,495.07,573.09Z" transform="translate(-435.07 -532.28)"/><rect class="cls-1" x="490.31" y="523.35" width="15.18" height="66.23" rx="7.59" transform="translate(-683.01 59.89) rotate(-50.92)"/><rect class="cls-1" x="536.41" y="579.12" width="15.18" height="99.16" rx="7.12" transform="translate(-722.05 122.37) rotate(-50.92)"/><circle class="cls-4" cx="23.33" cy="43.91" r="2.41"/><circle class="cls-4" cx="53.26" cy="68.02" r="2.41"/><circle class="cls-4" cx="61.05" cy="58.42" r="2.41"/><circle class="cls-5" cx="68.99" cy="48.64" r="2.41"/><circle class="cls-4" cx="31.22" cy="34.19" r="2.41"/><circle class="cls-5" cx="39.16" cy="24.41" r="2.41"/></svg>